<svg width="100" height="100" fill="none" xmlns="http://www.w3.org/2000/svg"><g opacity=".5" fill="#20DDF5"><path d="M29.936 81.273a.55.55 0 01-.016-.093 105.936 105.936 0 00-9.234 14.718 1.563 1.563 0 002.812 1.344 103.271 103.271 0 019.19-14.562c-.47-.047-.954-.125-1.44-.188a1.563 1.563 0 01-1.312-1.219z"/><path d="M98.612 21.945a1.564 1.564 0 00-1.518-1.937A64.061 64.061 0 0043.89 46.93a16.877 16.877 0 01-1.485-6.61 1.563 1.563 0 00-2.812-.937C25.592 58.039 29.56 79.367 29.92 81.18a158.72 158.72 0 0141.316-39.047 1.569 1.569 0 011.719 2.625A155.55 155.55 0 0032.688 82.68a77.28 77.28 0 009.906.64c25.267 0 36.439-13.25 36.954-13.89a1.563 1.563 0 00-1.453-2.532c-2.773.564-5.63.569-8.406.016C89.705 56.711 98.238 23.43 98.613 21.945z"/></g><path d="M67.969 1.563h-50A10.95 10.95 0 007.03 12.5v48.438H3.906A1.563 1.563 0 002.344 62.5 10.95 10.95 0 0013.28 73.438h35.94A10.95 10.95 0 0060.156 62.5V14.062h17.188a1.563 1.563 0 001.562-1.562A10.95 10.95 0 0067.97 1.562zM13.28 70.313a7.828 7.828 0 01-7.656-6.25h32.767a10.923 10.923 0 003.178 6.25H13.281zM57.03 62.5a7.813 7.813 0 01-15.625 0 1.563 1.563 0 00-1.562-1.563H10.156V12.5a7.822 7.822 0 017.813-7.813h42.36A10.901 10.901 0 0057.03 12.5v50zm3.282-51.563a7.813 7.813 0 0115.312 0H60.312z" fill="#1A1AFF"/><path d="M49.219 20.313h-31.25a1.562 1.562 0 100 3.125h31.25a1.562 1.562 0 100-3.125zm0 12.5h-31.25a1.562 1.562 0 100 3.124h31.25a1.562 1.562 0 100-3.124zm0 12.5h-31.25a1.562 1.562 0 100 3.124h31.25a1.562 1.562 0 100-3.124z" fill="#1A1AFF"/></svg>