<svg width="25" height="25" viewBox="0 0 25 25" fill="none" xmlns="http://www.w3.org/2000/svg">
<circle cx="12.5" cy="12.5" r="12.5" fill="#20DDF5"/>
<path d="M16.0416 5.41663H8.95829C7.00228 5.41663 5.41663 7.00228 5.41663 8.95829V16.0416C5.41663 17.9976 7.00228 19.5833 8.95829 19.5833H16.0416C17.9976 19.5833 19.5833 17.9976 19.5833 16.0416V8.95829C19.5833 7.00228 17.9976 5.41663 16.0416 5.41663Z" stroke="#000430" stroke-width="2" stroke-linecap="round" stroke-linejoin="round"/>
<path d="M15.3333 12.0537C15.4207 12.6432 15.32 13.2453 15.0455 13.7743C14.7711 14.3033 14.3368 14.7322 13.8044 15.0002C13.2721 15.2681 12.6689 15.3613 12.0805 15.2667C11.4921 15.172 10.9485 14.8942 10.5271 14.4728C10.1057 14.0514 9.82793 13.5078 9.73325 12.9195C9.63857 12.3311 9.73183 11.7278 9.99977 11.1955C10.2677 10.6632 10.6967 10.2289 11.2257 9.95439C11.7546 9.67991 12.3567 9.57922 12.9462 9.66664C13.5475 9.7558 14.1042 10.036 14.5341 10.4659C14.9639 10.8957 15.2441 11.4524 15.3333 12.0537Z" stroke="#000430" stroke-width="2" stroke-linecap="round" stroke-linejoin="round"/>
<path d="M16.3958 8.60413H16.4028" stroke="#000430" stroke-width="2" stroke-linecap="round" stroke-linejoin="round"/>
</svg>
