<svg width="100" height="100" fill="none" xmlns="http://www.w3.org/2000/svg"><path opacity=".5" d="M96.342 71.55a7.907 7.907 0 00-11.108 0l-3.368 3.343V37.488a7.857 7.857 0 00-9.47-7.656 7.956 7.956 0 00-6.25 7.887v18.533a7.945 7.945 0 00-6.341-1.417 7.72 7.72 0 00-5.242 3.903 7.918 7.918 0 00-7.366-2.344 7.717 7.717 0 00-5.235 3.896 7.87 7.87 0 00-13.618 5.557v15.391A17.206 17.206 0 0045.53 98.426h33.44a4.752 4.752 0 003.389-1.432L96.35 82.62a7.783 7.783 0 00-.009-11.068z" fill="#20DDF5"/><path opacity=".5" d="M63.105 37.722a10.989 10.989 0 1121.975-.234v5.206a14.085 14.085 0 10-21.975.813v-5.785z" fill="#20DDF5"/><path d="M3.906 17.188a1.563 1.563 0 001.563-1.563V6.25A1.562 1.562 0 017.03 4.687h9.375a1.562 1.562 0 100-3.125H7.031A4.687 4.687 0 002.344 6.25v9.375a1.563 1.563 0 001.562 1.563zM76.178 1.563h-9.375a1.563 1.563 0 000 3.125h9.375a1.563 1.563 0 011.563 1.562v9.375a1.563 1.563 0 003.125 0V6.25a4.688 4.688 0 00-4.688-4.688zm-59.772 75H7.031A1.563 1.563 0 015.47 75v-9.375a1.563 1.563 0 00-3.125 0V75a4.688 4.688 0 004.687 4.688h9.375a1.562 1.562 0 100-3.126zm62.897-12.5a1.563 1.563 0 00-1.562 1.562V75a1.563 1.563 0 01-1.563 1.563h-9.375a1.563 1.563 0 000 3.124h9.375A4.688 4.688 0 0080.866 75v-9.375a1.563 1.563 0 00-1.563-1.563zm-37.5-18.75a1.563 1.563 0 00-1.562 1.562v25a1.563 1.563 0 003.125 0v-25a1.563 1.563 0 00-1.563-1.563z" fill="#5A20FF"/><path d="M41.803 32.813A10.95 10.95 0 0030.866 43.75v28.125a1.563 1.563 0 003.125 0V43.75a7.813 7.813 0 0115.625 0v3.125a1.563 1.563 0 003.125 0V43.75a10.95 10.95 0 00-10.938-10.938zm-18.75 6.25a1.563 1.563 0 00-1.562 1.562v31.25a1.563 1.563 0 003.125 0v-31.25a1.563 1.563 0 00-1.563-1.563z" fill="#5A20FF"/><path d="M41.803 20.313a20.37 20.37 0 00-16.49 8.462 1.561 1.561 0 102.535 1.823 17.187 17.187 0 0131.143 10.027v31.25a1.563 1.563 0 003.125 0v-31.25a20.336 20.336 0 00-20.313-20.313z" fill="#5A20FF"/><path d="M51.178 60.938a1.563 1.563 0 00-1.562 1.562v9.375a1.563 1.563 0 003.125 0V62.5a1.563 1.563 0 00-1.563-1.563zM12.116 62.5a1.563 1.563 0 003.125 0v-25a26.592 26.592 0 0126.562-26.563 1.563 1.563 0 000-3.124A29.72 29.72 0 0012.116 37.5v25zm41.492-48.802A26.43 26.43 0 0168.366 37.5v25a1.562 1.562 0 103.125 0v-25A29.53 29.53 0 0055 10.9a1.564 1.564 0 00-2.255 1.291 1.563 1.563 0 00.863 1.507z" fill="#5A20FF"/></svg>