<svg width="18" height="24" fill="none" xmlns="http://www.w3.org/2000/svg"><g clip-path="url(#clip0)"><mask id="a" fill="#fff"><path d="M2.182 0v2.179h4.365V0H2.182zm4.365 2.179V4.36H8.73V2.179H6.547zM8.73 4.36v2.183h2.179V4.36H8.73zm2.179 2.183v2.182h2.182V6.544h-2.182zm2.182 2.182v2.183h2.183V8.726h-2.183zm2.183 2.183v2.182h2.182v-2.182h-2.182zm0 2.182h-2.183v2.183h2.183V13.09zm-2.183 2.183h-2.182v2.178h2.182v-2.178zm-2.182 2.178H8.73v2.183h2.179v-2.183zM8.73 19.635H6.547v2.182H8.73v-2.182zm-2.183 2.182H2.182V24h4.365v-2.183zm-4.365 0v-2.182H0v2.182h2.182zm0-2.182h2.183v-2.183H2.182v2.183zm2.183-2.183h2.182v-2.178H4.365v2.178zm2.182-2.178H8.73v-2.183H6.547v2.183zm2.183-2.183h2.179v-2.182H8.73v2.182zm0-2.182V8.726H6.547v2.183H8.73zM6.547 8.726V6.544H4.365v2.182h2.182zM4.365 6.544V4.36H2.182v2.183h2.183zM2.182 4.36V2.179H0V4.36h2.182z"/></mask><path d="M2.182 0v-40.315h-40.315V0H2.182zm0 2.179h-40.315v40.315H2.182V2.179zm4.365 0v40.315h40.315V2.179H6.547zm0-2.179h40.315v-40.315H6.547V0zm0 2.179v-40.315h-40.315V2.179H6.547zm0 2.182h-40.315v40.315H6.547V4.36zm2.183 0v40.315h40.315V4.36H8.73zm0-2.182h40.315v-40.315H8.73V2.179zm0 2.182v-40.315h-40.315V4.36H8.73zm0 2.183h-40.315v40.315H8.73V6.544zm2.179 0v40.315h40.315V6.544H10.909zm0-2.183h40.315v-40.315H10.909V4.36zm0 2.183v-40.315h-40.315V6.544h40.315zm0 2.182h-40.315V49.04h40.315V8.726zm2.182 0V49.04h40.315V8.726H13.091zm0-2.182h40.315v-40.315H13.091V6.544zm0 2.182V-31.59h-40.315V8.726h40.315zm0 2.183h-40.315v40.315h40.315V10.909zm2.183 0v40.315H55.59V10.909H15.274zm0-2.183H55.59V-31.59H15.274V8.726zm0 2.183v-40.315H-25.04v40.315h40.315zm0 2.182H-25.04v40.315h40.315V13.091zm2.182 0v40.315h40.315V13.091H17.456zm0-2.182h40.315v-40.315H17.456v40.315zm-2.182 2.182H55.59v-40.315H15.274v40.315zm-2.183 0v-40.315h-40.315v40.315h40.315zm0 2.183h-40.315V55.59h40.315V15.274zm2.183 0V55.59H55.59V15.274H15.274zm-2.183 0h40.315V-25.04H13.091v40.315zm-2.182 0V-25.04h-40.315v40.315h40.315zm0 2.178h-40.315v40.315h40.315V17.452zm2.182 0v40.315h40.315V17.452H13.091zm-2.182 0h40.315v-40.315H10.909v40.315zm-2.179 0v-40.315h-40.315v40.315H8.73zm0 2.183h-40.315V59.95H8.73V19.635zm2.179 0V59.95h40.315V19.635H10.909zm-2.179 0h40.315V-20.68H8.73v40.315zm-2.183 0V-20.68h-40.315v40.315H6.547zm0 2.182h-40.315v40.315H6.547V21.817zm2.183 0v40.315h40.315V21.817H8.73zm-2.183 0h40.315v-40.315H6.547v40.315zm-4.365 0v-40.315h-40.315v40.315H2.182zm0 2.183h-40.315v40.315H2.182V24zm4.365 0v40.315h40.315V24H6.547zm-4.365-2.183v40.315h40.315V21.817H2.182zm0-2.182h40.315V-20.68H2.182v40.315zm-2.182 0V-20.68h-40.315v40.315H0zm0 2.182h-40.315v40.315H0V21.817zm2.182-2.182h-40.315V59.95H2.182V19.635zm2.183 0V59.95H44.68V19.635H4.365zm0-2.183H44.68v-40.315H4.365v40.315zm-2.183 0v-40.315h-40.315v40.315H2.182zm2.183 0H-35.95v40.315H4.365V17.452zm2.182 0v40.315h40.315V17.452H6.547zm0-2.178h40.315V-25.04H6.547v40.315zm-2.182 0V-25.04H-35.95v40.315H4.365zm2.182 0h-40.315V55.59H6.547V15.274zm2.183 0V55.59h40.315V15.274H8.73zm0-2.183h40.315v-40.315H8.73v40.315zm-2.183 0v-40.315h-40.315v40.315H6.547zm2.183 0h-40.315v40.315H8.73V13.091zm2.179 0v40.315h40.315V13.091H10.909zm0-2.182h40.315v-40.315H10.909v40.315zm-2.179 0v-40.315h-40.315v40.315H8.73zm0 0v40.315h40.315V10.909H8.73zm0-2.183h40.315V-31.59H8.73V8.726zm-2.183 0V-31.59h-40.315V8.726H6.547zm0 2.183h-40.315v40.315H6.547V10.909zm0-2.183V49.04h40.315V8.726H6.547zm0-2.182h40.315v-40.315H6.547V6.544zm-2.182 0v-40.315H-35.95V6.544H4.365zm0 2.182H-35.95V49.04H4.365V8.726zm0-2.182v40.315H44.68V6.544H4.365zm0-2.183H44.68v-40.315H4.365V4.36zm-2.183 0v-40.315h-40.315V4.36H2.182zm0 2.183h-40.315v40.315H2.182V6.544zm0-2.183v40.315h40.315V4.36H2.182zm0-2.182h40.315v-40.315H2.182V2.179zM0 2.179v-40.315h-40.315V2.179H0zM0 4.36h-40.315v40.315H0V4.36zM-38.133 0v2.179h80.63V0h-80.63zM2.182 42.494h4.365v-80.63H2.182v80.63zm44.68-40.315V0h-80.63v2.179h80.63zM6.547-40.315H2.182v80.63h4.365v-80.63zM-33.768 2.179V4.36h80.63V2.179h-80.63zM6.547 44.676H8.73v-80.63H6.547v80.63zM49.045 4.36V2.179h-80.63V4.36h80.63zM8.73-38.136H6.547v80.63H8.73v-80.63zM-31.585 4.36v2.183h80.63V4.36h-80.63zM8.73 46.859h2.179v-80.63H8.73v80.63zM51.224 6.544V4.36h-80.63v2.183h80.63zM10.909-35.954H8.73v80.63h2.179v-80.63zM-29.406 6.544v2.182h80.63V6.544h-80.63zM10.909 49.04h2.182v-80.63h-2.182v80.63zM53.406 8.726V6.544h-80.63v2.182h80.63zM13.091-33.771h-2.182v80.63h2.182v-80.63zM-27.224 8.726v2.183h80.63V8.726h-80.63zm40.315 42.498h2.183v-80.63h-2.183v80.63zm42.498-40.315V8.726h-80.63v2.183h80.63zM15.274-31.589h-2.183v80.63h2.183v-80.63zM-25.04 10.909v2.182h80.63v-2.182h-80.63zm40.315 42.497h2.182v-80.63h-2.182v80.63zm42.497-40.315v-2.182h-80.63v2.182h80.63zM17.456-29.406h-2.182v80.63h2.182v-80.63zm-2.182 2.182h-2.183v80.63h2.183v-80.63zm-42.498 40.315v2.183h80.63v-2.183h-80.63zm40.315 42.498h2.183v-80.63h-2.183v80.63zm42.498-40.315v-2.183h-80.63v2.183h80.63zM13.091-25.04h-2.182v80.63h2.182v-80.63zm-42.497 40.315v2.178h80.63v-2.178h-80.63zm40.315 42.493h2.182v-80.63h-2.182v80.63zm42.497-40.315v-2.178h-80.63v2.178h80.63zM10.909-22.863H8.73v80.63h2.179v-80.63zm-42.494 40.315v2.183h80.63v-2.183h-80.63zM8.73 59.95h2.179v-80.63H8.73v80.63zm42.494-40.315v-2.183h-80.63v2.183h80.63zM8.73-20.68H6.547v80.63H8.73v-80.63zm-42.498 40.315v2.182h80.63v-2.182h-80.63zM6.547 62.132H8.73v-80.63H6.547v80.63zm42.498-40.315v-2.182h-80.63v2.182h80.63zM6.547-18.498H2.182v80.63h4.365v-80.63zm-44.68 40.315V24h80.63v-2.183h-80.63zM2.182 64.315h4.365v-80.63H2.182v80.63zM46.862 24v-2.183h-80.63V24h80.63zm-4.365-2.183v-2.182h-80.63v2.182h80.63zM2.182-20.68H0v80.63h2.182v-80.63zm-42.497 40.315v2.182h80.63v-2.182h-80.63zM0 62.132h2.182v-80.63H0v80.63zm2.182-2.182h2.183v-80.63H2.182v80.63zM44.68 19.635v-2.183h-80.63v2.183h80.63zM4.365-22.863H2.182v80.63h2.183v-80.63zm-42.498 40.315v2.183h80.63v-2.183h-80.63zM4.365 57.767h2.182v-80.63H4.365v80.63zm42.497-40.315v-2.178h-80.63v2.178h80.63zM6.547-25.041H4.365v80.63h2.182v-80.63zM-35.95 15.274v2.178h80.63v-2.178h-80.63zM6.547 55.59H8.73v-80.63H6.547v80.63zm42.498-40.315v-2.183h-80.63v2.183h80.63zM8.73-27.224H6.547v80.63H8.73v-80.63zm-42.498 40.315v2.183h80.63v-2.183h-80.63zM8.73 53.406h2.179v-80.63H8.73v80.63zm42.494-40.315v-2.182h-80.63v2.182h80.63zM10.909-29.406H8.73v80.63h2.179v-80.63zm-42.494 40.315v2.182h80.63v-2.182h-80.63zm80.63 0V8.726h-80.63v2.183h80.63zM8.73-31.589H6.547v80.63H8.73v-80.63zM-33.768 8.726v2.183h80.63V8.726h-80.63zM6.547 51.224H8.73v-80.63H6.547v80.63zM46.862 8.726V6.544h-80.63v2.182h80.63zM6.547-33.771H4.365v80.63h2.182v-80.63zM-35.95 6.544v2.182h80.63V6.544h-80.63zM4.365 49.04h2.182v-80.63H4.365v80.63zM44.68 6.544V4.36h-80.63v2.183h80.63zM4.365-35.954H2.182v80.63h2.183v-80.63zM-38.133 4.36v2.183h80.63V4.36h-80.63zM2.182 46.859h2.183v-80.63H2.182v80.63zM42.497 4.36V2.179h-80.63V4.36h80.63zM2.182-38.136H0v80.63h2.182v-80.63zM-40.315 2.179V4.36h80.63V2.179h-80.63zM0 44.676h2.182v-80.63H0v80.63z" fill="#5A20FF" mask="url(#a)"/></g><defs><clipPath id="clip0"><path fill="#fff" d="M0 0h17.456v24H0z"/></clipPath></defs></svg>