<svg width="58" height="58" fill="none" xmlns="http://www.w3.org/2000/svg"><path d="M33 8.781C19.62 8.781 8.781 19.621 8.781 33c0 13.378 10.84 24.219 24.219 24.219 13.38 0 24.219-10.84 24.219-24.219 0-13.378-10.84-24.219-24.219-24.219zm11.895 16.592L40.92 44.105c-.293 1.328-1.084 1.65-2.187 1.025l-6.055-4.463-2.92 2.813c-.322.322-.595.595-1.22.595l.43-6.163 11.22-10.137c.489-.43-.108-.673-.754-.244l-13.867 8.73-5.976-1.866c-1.299-.41-1.329-1.298.273-1.923l23.35-9.005c1.084-.39 2.031.264 1.68 1.905l.001.001z" fill="#FB7D08"/><path d="M25 .781C11.62.781.781 11.621.781 25c0 13.378 10.84 24.219 24.219 24.219 13.38 0 24.219-10.84 24.219-24.219C49.219 11.622 38.379.781 25 .781zm11.895 16.592L32.92 36.105c-.293 1.328-1.084 1.65-2.187 1.025l-6.055-4.463-2.92 2.813c-.322.322-.595.595-1.22.595l.43-6.163 11.22-10.137c.489-.43-.108-.673-.754-.244l-13.867 8.73-5.976-1.866c-1.299-.41-1.329-1.298.273-1.923l23.35-9.005c1.084-.39 2.031.264 1.68 1.905l.001.001z" fill="#5A20FF"/></svg>