<svg width="78" height="79" fill="none" xmlns="http://www.w3.org/2000/svg"><path d="M19.94 39.975l16.026 10.58 9.506 6.276a3.73 3.73 0 004.12 0l9.506-6.277 16.026-10.579a3.656 3.656 0 000-6.154L49.53 16.965a3.73 3.73 0 00-4.119 0L19.817 33.821a3.656 3.656 0 000 6.154h.122z" fill="#8A02C7"/><path d="M74.49 43.315L50.933 58.866a6.155 6.155 0 01-6.8 0l-23.56-15.551a4.082 4.082 0 00-2.291 3.498 3.658 3.658 0 001.657 3.083l25.594 16.855a3.79 3.79 0 004.12 0l25.593-16.855a3.658 3.658 0 001.536-3.084 4.107 4.107 0 00-2.291-3.497z" fill="#8A02C7"/><path d="M74.49 53.235L50.932 68.75a6.093 6.093 0 01-3.4 1.024 6.24 6.24 0 01-3.4-1.024l-23.56-15.515a4.059 4.059 0 00-2.29 3.498 3.656 3.656 0 001.657 3.071L45.533 76.66a3.73 3.73 0 004.12 0l25.593-16.856a3.657 3.657 0 001.536-3.07 4.082 4.082 0 00-2.292-3.499z" fill="#8A02C7"/><path d="M58.5 1.719H4.876A3.656 3.656 0 001.22 5.375v39a3.656 3.656 0 003.656 3.656h53.626a3.656 3.656 0 003.656-3.656v-39A3.656 3.656 0 0058.5 1.719zM4.876 4.156h53.626a1.219 1.219 0 011.218 1.219v28.75L48.397 22.791a1.216 1.216 0 00-1.73 0l-8.276 8.287-14.369-14.38a1.218 1.218 0 00-1.73 0L3.656 35.343V5.375a1.219 1.219 0 011.218-1.219zm53.626 41.438H4.875a1.22 1.22 0 01-1.218-1.219v-5.594l19.5-19.5L43.01 39.147a1.224 1.224 0 101.73-1.731l-4.63-4.62 7.422-7.421 12.187 12.187v6.813a1.22 1.22 0 01-1.218 1.219z" fill="#20DDF5"/><path d="M39 17.563a4.875 4.875 0 100-9.75 4.875 4.875 0 000 9.75zm0-7.313a2.438 2.438 0 110 4.875 2.438 2.438 0 010-4.875z" fill="#FFBA09"/></svg>