<svg width="78" height="78" fill="none" xmlns="http://www.w3.org/2000/svg"><path d="M73.125 25.594h-18.28v37.781a6.094 6.094 0 01-6.095 6.094h-8.53v3.656a3.656 3.656 0 003.655 3.656h29.25a3.656 3.656 0 003.657-3.656V29.25a3.656 3.656 0 00-3.657-3.656z" fill="#3E06DE"/><path d="M52.407 63.375V19.5a3.656 3.656 0 00-3.657-3.656H19.5a3.657 3.657 0 00-3.656 3.656v43.875a3.656 3.656 0 003.656 3.656h29.25a3.656 3.656 0 003.657-3.656zm-7.666-12.54l-4.875 4.874a1.219 1.219 0 01-1.414.22l-8.958-4.473-4.253 4.253a1.224 1.224 0 01-1.73-1.73l4.874-4.876a1.219 1.219 0 011.414-.219l8.958 4.473 4.253-4.254a1.223 1.223 0 111.73 1.731z" fill="#3E06DE"/><path d="M60.938 9.75H13.407V7.312a6.094 6.094 0 10-12.188 0v37.782a6.094 6.094 0 006.094 6.093h53.625a1.219 1.219 0 001.219-1.218v-39a1.219 1.219 0 00-1.22-1.219zM3.657 7.312a3.656 3.656 0 117.312 0V39a6.094 6.094 0 00-7.312 0V7.312zM59.719 48.75H7.313a3.656 3.656 0 01-3.656-3.656v-1.219a3.656 3.656 0 017.312 0 1.219 1.219 0 002.438 0V12.187h46.312V48.75z" fill="#20DDF5"/><path d="M20.72 25.594a4.875 4.875 0 004.703-3.657h6.435c.18.668.495 1.29.927 1.829a12.188 12.188 0 00-8.41 10.517 4.875 4.875 0 102.438 0 9.75 9.75 0 0119.378 0 4.875 4.875 0 102.437 0 12.187 12.187 0 00-8.287-10.517 4.984 4.984 0 00.926-1.828h6.435a4.875 4.875 0 100-2.438h-6.435a4.876 4.876 0 00-9.409 0h-6.435a4.875 4.875 0 10-4.704 6.094zM28.031 39a2.438 2.438 0 11-4.876 0 2.438 2.438 0 014.876 0zm21.937 0a2.438 2.438 0 11-4.875 0 2.438 2.438 0 014.875 0zm2.438-20.719a2.437 2.437 0 110 4.875 2.437 2.437 0 010-4.875zm-15.844 0a2.437 2.437 0 110 4.874 2.437 2.437 0 010-4.874zm-15.844 0a2.437 2.437 0 110 4.875 2.437 2.437 0 010-4.875z" fill="#FFBA09"/></svg>