<svg width="78" height="78" fill="none" xmlns="http://www.w3.org/2000/svg"><path d="M73.125 25.594H19.5a3.656 3.656 0 00-3.656 3.656v43.875a3.656 3.656 0 003.656 3.656h53.625a3.656 3.656 0 003.657-3.656V29.25a3.656 3.656 0 00-3.657-3.656zm-17.062 9.75a9.75 9.75 0 110 19.5 9.75 9.75 0 010-19.5zm7.983 31.492c-4.266 2.791-11.518 3.498-18.282 0-8.823-4.472-15.563-.243-15.843 0a1.22 1.22 0 11-1.329-2.047c.33-.207 8.178-5.204 18.282 0 8.811 4.473 15.563.244 15.843 0a1.22 1.22 0 011.329 2.047zm-2.706-6.8a1.22 1.22 0 01-.804-2.304 13.406 13.406 0 000-25.277 1.22 1.22 0 01.804-2.303 15.844 15.844 0 010 29.884z" fill="#3E06DE"/><path d="M54.844 37.781h-9.177a7.31 7.31 0 00-3.827-12.004 7.313 7.313 0 00-3.656-12.188 7.312 7.312 0 00-5.277-12.37H7.313a6.094 6.094 0 00-6.094 6.094v39a6.094 6.094 0 006.094 6.093h47.531a7.312 7.312 0 100-14.625zm0 12.188H7.313a3.656 3.656 0 01-3.656-3.656v-39a3.656 3.656 0 013.656-3.657h25.594a4.875 4.875 0 010 9.75h-1.22a1.218 1.218 0 100 2.438h4.876a4.875 4.875 0 110 9.75h-4.875a1.218 1.218 0 100 2.437h8.531a4.875 4.875 0 010 9.75h-8.531a1.218 1.218 0 100 2.438h23.156a4.875 4.875 0 010 9.75z" fill="#20DDF5"/><path d="M13.407 6.094H9.75A3.656 3.656 0 006.094 9.75v3.656a1.219 1.219 0 002.438 0V9.75A1.219 1.219 0 019.75 8.531h3.657a1.219 1.219 0 000-2.437z" fill="#FFBA09"/></svg>