<svg width="78" height="78" fill="none" xmlns="http://www.w3.org/2000/svg"><path d="M23.156 57.281h5.606l1.367-1.28a62.854 62.854 0 0139.34-16.879v-8.653H23.156V57.28zm9.75-24.375A6.093 6.093 0 1126.812 39a6.101 6.101 0 016.094-6.094z" fill="#E62247"/><path d="M69.469 57.281V41.56a60.407 60.407 0 00-37.112 15.722h37.112z" fill="#E62247"/><path d="M73.125 23.156H19.5a3.656 3.656 0 00-3.656 3.657v34.125a3.656 3.656 0 003.656 3.656h20.719v2.9l-13.951 6.972a1.219 1.219 0 00.695 2.3l19.35-2.415 19.348 2.42a1.219 1.219 0 00.696-2.3l-13.95-6.977v-2.9h20.718a3.656 3.656 0 003.656-3.656V26.813a3.656 3.656 0 00-3.656-3.657zM49.969 67.031h-7.313v-2.437h7.313v2.437zm21.937-8.53a1.219 1.219 0 01-1.219 1.218h-48.75A1.219 1.219 0 0120.72 58.5V29.25a1.219 1.219 0 011.218-1.219h48.75a1.22 1.22 0 011.22 1.22V58.5z" fill="#E62247"/><path d="M9.75 57.281a3.657 3.657 0 100-7.313 3.657 3.657 0 000 7.313zm0-4.875a1.219 1.219 0 110 2.438 1.219 1.219 0 010-2.438z" fill="#FFBA09"/><path d="M58.5 45.094H41.589l14.645-8.455a3.657 3.657 0 001.34-4.997L52.7 23.2a3.664 3.664 0 00-4.997-1.34l-14.645 8.457 8.455-14.645a3.655 3.655 0 00-1.34-4.997L31.729 5.8a3.656 3.656 0 00-4.997 1.34l-8.45 14.646V4.875a3.656 3.656 0 00-3.657-3.656h-9.75a3.656 3.656 0 00-3.656 3.656V58.5a3.656 3.656 0 003.656 3.656H58.5a3.656 3.656 0 003.656-3.656v-9.75a3.656 3.656 0 00-3.656-3.656zM15.844 58.5a1.219 1.219 0 01-1.22 1.219h-9.75A1.219 1.219 0 013.657 58.5V47.531h12.188v10.97zm0-13.406H3.656v-4.875h12.188v4.875zm0-7.313H3.656v-4.875h12.188v4.875zm0-7.312H3.656v-4.875h12.188v4.875zm0-7.313H3.656v-4.875h12.188v4.875zm0-7.312H3.656v-4.875h12.188v4.875zm0-7.313H3.656V4.875a1.219 1.219 0 011.219-1.219h9.75a1.219 1.219 0 011.219 1.22V8.53zm33.078 15.442a1.219 1.219 0 011.665.446l4.874 8.443a1.22 1.22 0 01-.445 1.665l-36.583 21.12 12.188-21.108 18.3-10.566zm-30.64 2.689L28.847 8.36a1.219 1.219 0 011.665-.447l8.443 4.876a1.219 1.219 0 01.446 1.664l-21.12 36.584V26.661zM59.718 58.5a1.219 1.219 0 01-1.22 1.219h-40.44a3.63 3.63 0 00.22-1.165l19.09-11.023H58.5a1.22 1.22 0 011.219 1.22v9.75z" fill="#20DDF5"/></svg>