<svg width="78" height="78" fill="none" xmlns="http://www.w3.org/2000/svg"><path d="M75.563 68.25h-2.438V40.218a3.656 3.656 0 00-3.656-3.656H23.156a3.656 3.656 0 00-3.656 3.656V68.25h-2.438a1.219 1.219 0 00-1.218 1.22 7.32 7.32 0 007.312 7.312H69.47a7.32 7.32 0 007.312-7.313 1.219 1.219 0 00-1.219-1.219zM21.937 40.218A1.218 1.218 0 0123.157 39h46.312a1.218 1.218 0 011.219 1.22v28.03H53.624a1.219 1.219 0 00-1.219 1.22 1.219 1.219 0 01-1.218 1.218h-9.75a1.219 1.219 0 01-1.22-1.219A1.219 1.219 0 0039 68.25H21.937V40.22z" fill="#E62247"/><path d="M68.25 64.593V42.656a1.218 1.218 0 00-1.219-1.219H25.594a1.218 1.218 0 00-1.219 1.219v21.937a1.218 1.218 0 001.219 1.219H67.03a1.218 1.218 0 001.219-1.219z" fill="#E62247"/><path d="M58.5 1.218H4.875a3.656 3.656 0 00-3.656 3.657v53.624a3.656 3.656 0 003.656 3.657H58.5a3.657 3.657 0 003.656-3.657V4.875A3.656 3.656 0 0058.5 1.218zM4.875 3.656H58.5a1.219 1.219 0 011.219 1.219V8.53H3.656V4.875a1.219 1.219 0 011.219-1.22zM58.5 59.718H4.875A1.219 1.219 0 013.656 58.5V10.97H59.72V58.5a1.22 1.22 0 01-1.219 1.22z" fill="#20DDF5"/><path d="M7.313 7.312a1.219 1.219 0 100-2.437 1.219 1.219 0 000 2.437zm3.656 0a1.219 1.219 0 100-2.438 1.219 1.219 0 000 2.438zm3.656 0a1.219 1.219 0 100-2.438 1.219 1.219 0 000 2.438zm40.219 7.312H8.53a1.219 1.219 0 00-1.219 1.22v15.843a1.219 1.219 0 001.22 1.219h46.312a1.218 1.218 0 001.218-1.219V15.843a1.218 1.218 0 00-1.218-1.219zm-1.219 15.844H9.75V17.062h43.875v13.406z" fill="#FFBA09"/><path d="M25.594 36.562H8.53a1.219 1.219 0 00-1.219 1.219v17.062a1.218 1.218 0 001.22 1.219h17.062a1.218 1.218 0 001.218-1.219V37.781a1.218 1.218 0 00-1.218-1.219zm-1.219 17.063H9.75V38.998h14.625v14.625zm30.469-17.063H31.687a1.219 1.219 0 00-1.218 1.219v17.062a1.219 1.219 0 001.218 1.219h23.157a1.218 1.218 0 001.218-1.219V37.781a1.218 1.218 0 00-1.218-1.219zm-1.219 17.063H32.906V38.998h20.719v14.625z" fill="#20DDF5"/></svg>