<svg width="78" height="78" fill="none" xmlns="http://www.w3.org/2000/svg"><path d="M68.25 59.719a8.531 8.531 0 00-5.094 1.706L53.138 51.407a8.458 8.458 0 000-10.189L63.156 31.2a8.531 8.531 0 10-1.73-1.73l-10.02 10.016a8.458 8.458 0 00-10.189 0L31.2 29.47a8.532 8.532 0 10-1.73 1.731l10.018 10.018a8.458 8.458 0 000 10.189L29.47 61.425a8.531 8.531 0 101.73 1.73l10.018-10.017a8.458 8.458 0 0010.19 0l10.017 10.018a8.53 8.53 0 106.825-3.437z" fill="#3E06DE"/><path d="M58.5 1.219h-4.874a3.656 3.656 0 00-3.657 3.656v1.219h-1.828a1.219 1.219 0 000 2.437h1.828V9.75a3.657 3.657 0 003.657 3.656h1.218v1.828a1.219 1.219 0 002.438 0v-1.828H58.5a3.656 3.656 0 003.656-3.656V4.875A3.656 3.656 0 0058.5 1.219zm1.22 8.531a1.22 1.22 0 01-1.22 1.219h-4.874a1.219 1.219 0 01-1.22-1.219V4.875a1.219 1.219 0 011.22-1.219H58.5a1.219 1.219 0 011.218 1.219V9.75zM58.5 49.969h-1.218V48.14a1.219 1.219 0 10-2.438 0v1.828h-1.218a3.656 3.656 0 00-3.657 3.656v1.219h-1.828a1.22 1.22 0 000 2.437h1.828v1.22a3.657 3.657 0 003.657 3.656H58.5a3.656 3.656 0 003.656-3.656v-4.875a3.656 3.656 0 00-3.656-3.656zm1.22 8.531a1.22 1.22 0 01-1.22 1.219h-4.874a1.219 1.219 0 01-1.22-1.219v-4.875a1.219 1.219 0 011.22-1.219H58.5a1.22 1.22 0 011.218 1.219V58.5zM15.235 6.094h-1.828V4.875A3.656 3.656 0 009.75 1.219H4.875A3.656 3.656 0 001.22 4.875V9.75a3.656 3.656 0 003.656 3.656h1.22v1.828a1.219 1.219 0 002.437 0v-1.828H9.75a3.656 3.656 0 003.657-3.656V8.531h1.828a1.219 1.219 0 100-2.437zM10.969 9.75a1.22 1.22 0 01-1.219 1.219H4.875A1.219 1.219 0 013.657 9.75V4.875a1.219 1.219 0 011.218-1.219H9.75a1.219 1.219 0 011.22 1.219V9.75zm10.847-1.219h6.581a1.219 1.219 0 000-2.437h-6.581a1.219 1.219 0 000 2.437zm13.163 0h6.581a1.219 1.219 0 100-2.437h-6.58a1.219 1.219 0 000 2.437zM15.235 54.844h-1.828v-1.219a3.656 3.656 0 00-3.657-3.656H8.532V48.14a1.219 1.219 0 10-2.438 0v1.828H4.875a3.656 3.656 0 00-3.656 3.656V58.5a3.656 3.656 0 003.656 3.656H9.75a3.656 3.656 0 003.657-3.656v-1.219h1.828a1.218 1.218 0 100-2.437zM10.969 58.5a1.22 1.22 0 01-1.219 1.219H4.875A1.219 1.219 0 013.657 58.5v-4.875a1.219 1.219 0 011.218-1.219H9.75a1.22 1.22 0 011.22 1.219V58.5zm17.428-3.656h-6.581a1.22 1.22 0 000 2.437h6.581a1.219 1.219 0 000-2.437zm13.163 0h-6.58a1.22 1.22 0 000 2.437h6.581a1.218 1.218 0 100-2.437zM7.313 29.616a1.219 1.219 0 001.219-1.22v-6.58a1.219 1.219 0 00-2.438 0v6.58a1.219 1.219 0 001.219 1.22zM6.094 41.56a1.219 1.219 0 002.438 0v-6.582a1.219 1.219 0 10-2.438 0v6.581zm49.969-11.944a1.22 1.22 0 001.219-1.22v-6.58a1.22 1.22 0 00-2.438 0v6.58a1.219 1.219 0 001.219 1.22zM54.844 41.56a1.219 1.219 0 002.438 0v-6.582a1.219 1.219 0 10-2.438 0v6.581z" fill="#20DDF5"/><path d="M31.688 17.063a14.625 14.625 0 100 29.25 14.625 14.625 0 000-29.25zm8.946 20.718H22.742l8.946-16.892 8.946 16.892zM29.555 19.695l-8.982 16.977a12.187 12.187 0 018.982-16.977zm2.133 24.18a12.186 12.186 0 01-8.69-3.656h17.38a12.188 12.188 0 01-8.69 3.656zm11.115-7.203l-8.982-16.977a12.187 12.187 0 018.982 16.977z" fill="#FFC225"/></svg>