<svg width="78" height="78" fill="none" xmlns="http://www.w3.org/2000/svg"><path d="M69.246 50.944c.649-3.053.649-6.21 0-9.263l5.873-4.833a1.218 1.218 0 00.28-1.55l-4.875-8.444a1.219 1.219 0 00-1.483-.531l-7.128 2.671a23.295 23.295 0 00-8.016-4.64l-1.247-7.491a1.219 1.219 0 00-1.199-1.02h-9.75a1.22 1.22 0 00-1.203 1.02l-1.248 7.49a23.246 23.246 0 00-8.014 4.641l-7.126-2.669a1.219 1.219 0 00-1.484.532L17.751 35.3a1.219 1.219 0 00.28 1.55l5.874 4.831a22.33 22.33 0 000 9.263l-5.867 4.831a1.22 1.22 0 00-.28 1.55l4.874 8.444a1.219 1.219 0 001.484.531l7.126-2.669a23.245 23.245 0 008.014 4.642l1.248 7.49a1.218 1.218 0 001.203 1.018h9.75a1.219 1.219 0 001.202-1.019l1.249-7.489a23.28 23.28 0 008.005-4.642l7.123 2.67a1.219 1.219 0 001.484-.532l4.875-8.444a1.219 1.219 0 00-.28-1.55l-5.869-4.831zm-22.67 6.337a10.97 10.97 0 1110.969-10.968A10.98 10.98 0 0146.576 57.28z" fill="#3E06DE"/><path d="M59.72 1.219H6.093a3.656 3.656 0 00-3.656 3.656V48.75a3.656 3.656 0 003.656 3.656H59.72a3.656 3.656 0 003.656-3.656V4.875A3.656 3.656 0 0059.72 1.22zM6.093 3.656H59.72a1.219 1.219 0 011.219 1.22v6.093H4.875V4.875a1.219 1.219 0 011.22-1.219zM59.72 49.97H6.094a1.219 1.219 0 01-1.219-1.219V13.406h56.063V48.75a1.219 1.219 0 01-1.219 1.219z" fill="#20DDF5"/><path d="M8.532 8.531H9.75a1.219 1.219 0 000-2.437H8.532a1.219 1.219 0 000 2.437zm6.093 0h1.22a1.219 1.219 0 000-2.437h-1.22a1.219 1.219 0 100 2.437zm6.095 0h1.218a1.219 1.219 0 000-2.437h-1.219a1.219 1.219 0 000 2.437zm21.937 0h14.625a1.219 1.219 0 000-2.437H42.657a1.219 1.219 0 000 2.437z" fill="#20DDF5"/><path d="M13.764 30.112a1.219 1.219 0 001.723-1.724l-4.014-4.013 4.014-4.013a1.218 1.218 0 00-1.723-1.724l-4.876 4.875a1.219 1.219 0 000 1.724l4.876 4.875zm10.968 0a1.219 1.219 0 001.724 0l4.875-4.875a1.219 1.219 0 000-1.724l-4.875-4.875a1.219 1.219 0 00-1.724 1.724l4.014 4.013-4.014 4.013a1.219 1.219 0 000 1.724zm-6.878.28a1.218 1.218 0 001.57-.713l3.656-9.75a1.219 1.219 0 00-2.284-.853l-3.656 9.75a1.219 1.219 0 00.714 1.566z" fill="#FFBA09"/><path d="M56.063 28.031H42.657a1.219 1.219 0 000 2.438h13.406a1.22 1.22 0 000-2.438zm0 7.313H28.032a1.219 1.219 0 000 2.437h28.03a1.22 1.22 0 000-2.437zM9.75 37.781h13.407a1.22 1.22 0 000-2.437H9.75a1.219 1.219 0 100 2.437zm46.313 4.875H42.657a1.219 1.219 0 000 2.438h13.406a1.22 1.22 0 000-2.438zm-18.281 0H9.75a1.219 1.219 0 100 2.438h28.032a1.22 1.22 0 000-2.438z" fill="#20DDF5"/></svg>