<svg width="78" height="79" fill="none" xmlns="http://www.w3.org/2000/svg"><path d="M75.962 26.66l-28.031-9.75a1.2 1.2 0 00-.8 0l-28.03 9.75a1.22 1.22 0 00-.813 1.273l1.188 11.87c2.792 27.928 27.073 37.477 27.51 37.855a1.22 1.22 0 001.09 0c1.209-.982 24.59-8.629 27.245-35.174l1.46-14.55a1.22 1.22 0 00-.819-1.273zM61.885 40.83L44.278 55.137a2.438 2.438 0 01-3.26-.168l-8.027-8.023a2.44 2.44 0 013.45-3.45l6.473 6.472L58.817 37.05a2.438 2.438 0 013.072 3.779l-.004.002z" fill="#E62247"/><path d="M59.002 48.53l-6.978-6.977A25.58 25.58 0 104.875 27.81c0 4.872 1.4 9.642 4.034 13.74l-6.976 6.98a2.437 2.437 0 001.182 4.098l6.033 1.377 1.377 6.033a2.438 2.438 0 004.1 1.182l8.819-8.819a25.088 25.088 0 0014.046 0l8.823 8.819a2.438 2.438 0 004.098-1.182l1.377-6.035 6.033-1.377a2.437 2.437 0 001.181-4.097zm-46.1 10.97l-1.376-6.037a2.455 2.455 0 00-1.836-1.828l-6.034-1.382 6.684-6.685a25.7 25.7 0 0010.536 7.956L12.902 59.5zm-5.59-31.69A23.156 23.156 0 1130.47 50.968 23.182 23.182 0 017.313 27.81zm43.93 23.817a2.455 2.455 0 00-1.829 1.828l-1.38 6.043-7.975-7.974a25.69 25.69 0 0010.536-7.956l6.687 6.683-6.04 1.376z" fill="#20DDF5"/><path d="M41.091 21.18l-4.594-.668-2.055-4.164a4.433 4.433 0 00-7.95 0l-2.055 4.164-4.596.668a4.431 4.431 0 00-2.456 7.556l3.326 3.242-.784 4.578a4.434 4.434 0 006.43 4.671l4.112-2.158 4.11 2.16a4.433 4.433 0 006.43-4.67l-.79-4.578 3.327-3.242a4.434 4.434 0 00-2.455-7.559zm.756 5.814l-3.778 3.689a1.22 1.22 0 00-.35 1.078l.893 5.21a1.994 1.994 0 01-2.903 2.102l-4.677-2.459a1.219 1.219 0 00-1.135 0l-4.669 2.459a1.994 1.994 0 01-2.893-2.103l.893-5.209a1.218 1.218 0 00-.35-1.078l-3.779-3.69a1.993 1.993 0 011.104-3.402l5.231-.76a1.218 1.218 0 00.918-.666l2.339-4.739a1.992 1.992 0 013.577 0l2.338 4.739a1.22 1.22 0 00.918.666l5.23.76a1.994 1.994 0 011.093 3.402z" fill="#FFBA09"/></svg>