<svg width="78" height="78" fill="none" xmlns="http://www.w3.org/2000/svg"><path d="M41.438 46.313a1.219 1.219 0 012.437 0v13.406H58.34C57.8 46.97 55.5 15.844 42.656 15.844S27.515 46.922 26.972 59.719h14.465V46.313zM12.187 63.375v2.438a1.22 1.22 0 001.22 1.218h11.192a3.615 3.615 0 01-.224-1.218c0-4.78.453-13.324 1.23-20.054a18.365 18.365 0 00-13.418 17.616zm29.25-1.219H26.883c-.07 2.249-.07 3.621-.07 3.657a1.219 1.219 0 001.218 1.218h13.406v-4.875zM59.71 45.76c.667 5.793 1.228 14.325 1.228 20.053-.004.416-.08.828-.224 1.218h11.192a1.22 1.22 0 001.22-1.218v-2.438A18.365 18.365 0 0059.708 45.76zM43.875 62.156v4.875H57.28a1.218 1.218 0 001.219-1.218c0-.036 0-1.408-.07-3.657H43.874zM33.61 69.469c1.99 3.096 5.371 7.312 9.046 7.312 3.674 0 7.056-4.217 9.047-7.312H33.609z" fill="#E62247"/><path d="M46.312 21.938a20.72 20.72 0 10-29.25 18.859v4.518a3.625 3.625 0 00-1.483 5.873 3.578 3.578 0 00-.954 2.437 3.656 3.656 0 003.656 3.656h1.34a6.094 6.094 0 0011.945 0h1.34a3.64 3.64 0 002.702-6.093 3.578 3.578 0 00.954-2.438 3.656 3.656 0 00-2.437-3.432v-4.521a20.73 20.73 0 0012.187-18.86zm-20.718 37.78a3.664 3.664 0 01-3.448-2.437h6.895a3.663 3.663 0 01-3.447 2.438zm7.312-4.874H18.281a1.219 1.219 0 010-2.438h14.625a1.218 1.218 0 110 2.438zm0-4.875H18.281a1.219 1.219 0 010-2.438h14.625a1.219 1.219 0 110 2.438zM19.5 45.094v-3.355c1.979.586 4.03.895 6.094.917a22.368 22.368 0 006.093-.917v3.355H19.5zm10.969-5.555V22.365l4.608-5.76a1.219 1.219 0 10-1.904-1.523l-4.875 6.094a1.219 1.219 0 00-.267.762v18.1c-.807.114-1.622.175-2.437.18a18.275 18.275 0 01-2.438-.18v-18.1c0-.277-.094-.546-.267-.762l-4.875-6.094a1.219 1.219 0 10-1.904 1.524l4.609 5.76v17.173a18.281 18.281 0 119.75 0z" fill="#20DDF5"/><path d="M45 22c0 10.45-8.686 19-19.5 19S6 32.45 6 22 14.686 3 25.5 3 45 11.55 45 22z" stroke="#FFBA09" stroke-width="4"/></svg>