<svg width="78" height="78" fill="none" xmlns="http://www.w3.org/2000/svg"><path d="M40.22 67.032H19.5v3.656a1.219 1.219 0 001.22 1.219h22.944a3.754 3.754 0 00.033-2.348 3.642 3.642 0 00-3.478-2.527zm6.27 2.528a3.754 3.754 0 00.034 2.347h22.945a1.219 1.219 0 001.219-1.22v-3.655H49.969a3.643 3.643 0 00-3.478 2.527z" fill="#9605D7"/><path d="M71.907 25.594h-1.22v-1.219a3.656 3.656 0 00-3.655-3.656H49.969a6.071 6.071 0 00-4.875 2.475 6.072 6.072 0 00-4.875-2.475H23.157a3.656 3.656 0 00-3.657 3.656v1.22h-1.218a3.656 3.656 0 00-3.657 3.655v43.875a3.656 3.656 0 003.657 3.657h53.625a3.657 3.657 0 003.656-3.657V29.25a3.656 3.656 0 00-3.656-3.656zm-19.5 1.219h9.75a1.219 1.219 0 010 2.437h-9.75a1.219 1.219 0 010-2.437zm0 7.312h9.75a1.219 1.219 0 010 2.438h-9.75a1.219 1.219 0 010-2.438zm0 7.313h9.75a1.219 1.219 0 010 2.437h-9.75a1.219 1.219 0 010-2.437zm0 7.312h9.75a1.219 1.219 0 010 2.438h-9.75a1.219 1.219 0 010-2.438zm0 7.313h9.75a1.219 1.219 0 010 2.437h-9.75a1.219 1.219 0 010-2.437zm-24.704-29.25H38.11a1.34 1.34 0 011.34 1.34 1.373 1.373 0 01-1.34 1.365h-3.876v13.017a1.322 1.322 0 01-1.34 1.34 1.342 1.342 0 01-1.341-1.34V29.518h-3.851a1.359 1.359 0 01-1.341-1.365 1.324 1.324 0 011.34-1.34zm10.079 24.375h-9.75a1.219 1.219 0 010-2.438h9.75a1.219 1.219 0 010 2.438zM39 57.282a1.218 1.218 0 01-1.218 1.218h-9.75a1.219 1.219 0 010-2.437h9.75A1.219 1.219 0 0139 57.282zm34.125 15.843a1.219 1.219 0 01-1.218 1.22H18.282a1.219 1.219 0 01-1.22-1.22V29.25a1.22 1.22 0 011.22-1.218H19.5v36.562h20.72a6.102 6.102 0 014.874 2.438 6.101 6.101 0 014.875-2.438h20.719V28.032h1.219a1.22 1.22 0 011.218 1.218v43.875z" fill="#8A02C7"/><path d="M13.407 6.094H8.532a1.219 1.219 0 00-1.22 1.219v4.875a1.219 1.219 0 001.22 1.219h4.875a1.219 1.219 0 001.218-1.22V7.314a1.219 1.219 0 00-1.218-1.219zm-1.22 4.875H9.75V8.532h2.438v2.437zm27.251 18.816H34.21V44h-3.515V29.785h-5.157v-2.847h13.899v2.848z" fill="#FFBA09"/><path d="M57.282 15.844a3.657 3.657 0 003.656-3.656V7.313a3.656 3.656 0 00-3.656-3.656h-4.875a3.656 3.656 0 00-3.657 3.656v1.219H19.5V4.875a3.656 3.656 0 00-3.656-3.656h-9.75a3.656 3.656 0 00-3.656 3.656v9.75a3.656 3.656 0 003.656 3.657H9.75V48.75H8.532a3.656 3.656 0 00-3.657 3.657v4.875a3.656 3.656 0 003.657 3.656h4.875a3.656 3.656 0 003.656-3.656v-1.22H48.75v1.22a3.656 3.656 0 003.657 3.656h4.875a3.656 3.656 0 003.656-3.656v-4.875a3.656 3.656 0 00-3.656-3.657h-1.22V15.844h1.22zm-51.188 0a1.219 1.219 0 01-1.219-1.219v-9.75a1.219 1.219 0 011.22-1.218h9.75a1.219 1.219 0 011.218 1.218v9.75a1.219 1.219 0 01-1.219 1.22h-9.75zm8.531 41.438a1.218 1.218 0 01-1.218 1.218H8.532a1.219 1.219 0 01-1.22-1.218v-4.875a1.219 1.219 0 011.22-1.22h4.875a1.219 1.219 0 011.218 1.22v4.875zm34.125-4.875v1.218H17.063v-1.218a3.656 3.656 0 00-3.656-3.657h-1.22V18.282h3.657a3.657 3.657 0 003.656-3.657V10.97h29.25v1.219a3.656 3.656 0 003.657 3.656h1.218V48.75h-1.218a3.656 3.656 0 00-3.657 3.657zm8.532-1.22a1.219 1.219 0 011.218 1.22v4.875a1.218 1.218 0 01-1.218 1.218h-4.875a1.219 1.219 0 01-1.22-1.218v-4.875a1.219 1.219 0 011.22-1.22h4.875zm-4.875-37.78a1.219 1.219 0 01-1.22-1.22V7.314a1.219 1.219 0 011.22-1.219h4.875A1.219 1.219 0 0158.5 7.313v4.875a1.219 1.219 0 01-1.218 1.219h-4.875z" fill="#20DDF5"/></svg>