<svg width="78" height="78" fill="none" xmlns="http://www.w3.org/2000/svg"><path d="M29.25 68.25a4.875 4.875 0 01-4.875-4.875 1.219 1.219 0 00-2.438 0 4.875 4.875 0 01-4.875 4.875 1.219 1.219 0 000 2.438 4.875 4.875 0 014.875 4.874 1.219 1.219 0 002.438 0 4.875 4.875 0 014.875-4.874 1.219 1.219 0 000-2.438zm34.125-43.875a4.875 4.875 0 014.875 4.875 1.219 1.219 0 002.438 0 4.875 4.875 0 014.874-4.875 1.219 1.219 0 000-2.438 4.875 4.875 0 01-4.874-4.875 1.219 1.219 0 00-2.438 0 4.875 4.875 0 01-4.875 4.875 1.219 1.219 0 000 2.438zm-46.312 3.656a8.542 8.542 0 018.53 8.532 1.22 1.22 0 002.438 0 8.542 8.542 0 018.532-8.532 1.22 1.22 0 000-2.437 8.542 8.542 0 01-8.532-8.532 1.22 1.22 0 00-2.437 0 8.542 8.542 0 01-8.532 8.532 1.22 1.22 0 000 2.437zm32.879 19.424a2.107 2.107 0 00.585 2.081c.363.277.75.522 1.155.731v-4.92a2.736 2.736 0 00-1.74 2.108zm4.536 6.605l-.354-.122v6.598a3.797 3.797 0 002.503-2.957 3.031 3.031 0 00-2.149-3.519z" fill="#FB7D08"/><path d="M53.016 37.324a15.691 15.691 0 1015.691 15.692 15.708 15.708 0 00-15.691-15.692zm6.01 20.653a6.186 6.186 0 01-4.906 5.082v1.535a1.218 1.218 0 11-2.438 0v-1.438a7.633 7.633 0 01-4.21-1.456 1.221 1.221 0 111.341-2.04 5.24 5.24 0 002.874 1.063v-7.751a12.395 12.395 0 01-2.66-1.518 4.517 4.517 0 01-1.476-4.453 5.137 5.137 0 014.133-4.186v-1.377a1.219 1.219 0 012.437 0v1.284c1.216.166 2.36.67 3.305 1.453a1.219 1.219 0 01-1.643 1.8 3.995 3.995 0 00-1.662-.776v6.135c.366.139.745.28 1.165.429a5.433 5.433 0 013.74 6.214z" fill="#FB7D08"/><path d="M53.016 29.25A23.766 23.766 0 1076.78 53.016 23.794 23.794 0 0053.015 29.25zm0 41.894a18.13 18.13 0 1118.128-18.128 18.15 18.15 0 01-18.129 18.128z" fill="#FB7D08"/><path d="M61.547 39.587l-8.735-22.92a3.645 3.645 0 00-1.619-6.917H40.515a5.468 5.468 0 00-8.822-6.452 5.469 5.469 0 00-8.82 6.452h-10.68a3.646 3.646 0 00-1.618 6.918l-8.731 22.92a9.464 9.464 0 008.835 12.818h42.03a9.462 9.462 0 008.838-12.819zM35.959 3.657a3.047 3.047 0 110 6.093 3.047 3.047 0 010-6.094zM24.381 6.702a3.047 3.047 0 116.094 0 3.047 3.047 0 01-6.094 0zm-12.188 5.484h39a1.22 1.22 0 010 2.438h-39a1.219 1.219 0 010-2.438zM52.708 49.97h-42.03a7.023 7.023 0 01-6.556-9.514l8.911-23.392h37.32l8.912 23.39a7.025 7.025 0 01-6.557 9.516z" fill="#20DDF5"/><path d="M15.85 43.875h-3.952a2.143 2.143 0 01-2.002-2.903l1.98-5.194a1.218 1.218 0 10-2.278-.868l-1.98 5.195a4.584 4.584 0 004.28 6.208h3.952a1.219 1.219 0 000-2.438z" fill="#FFBA09"/></svg>